<svg id="Layer_1" data-name="Layer 1" xmlns="http://www.w3.org/2000/svg" viewBox="0 0 145.92 145.92"><defs><style>.cls-1,.cls-2{fill:#fb2d35;}.cls-2{fill-rule:evenodd;}</style></defs><title>controller-ico</title><circle class="cls-1" cx="96" cy="80.63" r="6.4"/><path class="cls-2" d="M152.15,79.3a73,73,0,1,0,73,73A73,73,0,0,0,152.15,79.3Zm43.53,91.25a25.6,25.6,0,0,1-36.21-.36H144.82a25.61,25.61,0,1,1-18.28-43.53h51.22a25.61,25.61,0,0,1,17.92,43.89Z" transform="translate(-79.19 -79.3)"/><path class="cls-2" d="M138.71,148.42h-8.32V140.1a1.92,1.92,0,0,0-1.92-1.92h-3.84a1.92,1.92,0,0,0-1.92,1.92v8.32h-8.32a1.92,1.92,0,0,0-1.92,1.92v3.84a1.92,1.92,0,0,0,1.92,1.92h8.32v8.32a1.92,1.92,0,0,0,1.92,1.92h3.84a1.92,1.92,0,0,0,1.92-1.92V156.1h8.32a1.92,1.92,0,0,0,1.92-1.92v-3.84A1.92,1.92,0,0,0,138.71,148.42Z" transform="translate(-79.19 -79.3)"/><circle class="cls-1" cx="106.25" cy="65.28" r="6.4"/></svg>