<?xml version="1.0" encoding="utf-8"?>
<!-- Generator: Adobe Illustrator 24.0.0, SVG Export Plug-In . SVG Version: 6.00 Build 0)  -->
<svg version="1.1" id="Layer_1" xmlns="http://www.w3.org/2000/svg" xmlns:xlink="http://www.w3.org/1999/xlink" x="0px" y="0px"
	 viewBox="0 0 304 304" style="enable-background:new 0 0 304 304;" xml:space="preserve">
<style type="text/css">
	.st0{fill-rule:evenodd;clip-rule:evenodd;fill:#FB2D35;}
</style>
<g>
	
		<ellipse transform="matrix(0.9732 -0.2298 0.2298 0.9732 -32.0609 44.5302)" class="st0" cx="175.19" cy="159.94" rx="6.4" ry="6.4"/>
	<path class="st0" d="M152.15,79.3c-40.29,0-72.96,32.67-72.96,72.96s32.67,72.96,72.96,72.96c40.29,0,72.96-32.66,72.96-72.96
		S192.45,79.3,152.15,79.3z M195.68,170.55c-10.1,9.9-26.31,9.74-36.21-0.36h-14.65c-4.82,4.91-11.41,7.68-18.29,7.68
		c-14.14,0-25.6-11.47-25.6-25.61c0-14.14,11.47-25.6,25.61-25.6h51.22c6.88,0,13.46,2.77,18.28,7.68
		C205.94,144.44,205.78,160.65,195.68,170.55z"/>
	<path class="st0" d="M138.71,148.42h-8.32v-8.32c0-1.06-0.86-1.92-1.92-1.92h-3.84c-1.06,0-1.92,0.86-1.92,1.92v8.32h-8.32
		c-1.06,0-1.92,0.86-1.92,1.92v3.84c0,1.06,0.86,1.92,1.92,1.92h8.32v8.32c0,1.06,0.86,1.92,1.92,1.92h3.84
		c1.06,0,1.92-0.86,1.92-1.92v-8.32h8.32c1.06,0,1.92-0.86,1.92-1.92v-3.84C140.63,149.28,139.77,148.42,138.71,148.42z"/>
	
		<ellipse transform="matrix(0.7071 -0.7071 0.7071 0.7071 -47.9214 173.4697)" class="st0" cx="185.44" cy="144.58" rx="6.4" ry="6.4"/>
</g>
</svg>
