<?xml version="1.0" encoding="utf-8"?>
<!-- Generator: Adobe Illustrator 24.0.0, SVG Export Plug-In . SVG Version: 6.00 Build 0)  -->
<svg version="1.1" id="Layer_1" xmlns="http://www.w3.org/2000/svg" xmlns:xlink="http://www.w3.org/1999/xlink" x="0px" y="0px"
	 viewBox="0 0 304 304" style="enable-background:new 0 0 304 304;" xml:space="preserve">
<style type="text/css">
	.st0{fill-rule:evenodd;clip-rule:evenodd;fill:#FB2D35;}
</style>
<g>
	
		<ellipse transform="matrix(0.9732 -0.2298 0.2298 0.9732 -27.4338 34.601)" class="st0" cx="134.87" cy="135.11" rx="5.76" ry="5.76"/>
	
		<ellipse transform="matrix(0.9871 -0.1602 0.1602 0.9871 -25.4365 23.7947)" class="st0" cx="134.87" cy="169.67" rx="5.76" ry="5.76"/>
	
		<ellipse transform="matrix(0.9871 -0.1602 0.1602 0.9871 -24.9903 29.3306)" class="st0" cx="169.43" cy="169.67" rx="5.76" ry="5.76"/>
	<path class="st0" d="M152.15,79.3c-40.29,0-72.96,32.67-72.96,72.96s32.67,72.96,72.96,72.96c40.29,0,72.96-32.66,72.96-72.96
		S192.45,79.3,152.15,79.3z M192.47,181.19c0,6.36-5.16,11.52-11.52,11.52h-57.6c-6.36,0-11.52-5.16-11.52-11.52v-57.6
		c0-6.36,5.16-11.52,11.52-11.52h57.6c6.36,0,11.52,5.16,11.52,11.52V181.19z"/>
	
		<ellipse transform="matrix(0.9732 -0.2298 0.2298 0.9732 -26.5092 42.5414)" class="st0" cx="169.43" cy="135.11" rx="5.76" ry="5.76"/>
</g>
</svg>
