<svg id="Layer_1" data-name="Layer 1" xmlns="http://www.w3.org/2000/svg" viewBox="0 0 145.92 145.92"><defs><style>.cls-1,.cls-2{fill:#fb2d35;}.cls-2{fill-rule:evenodd;}</style></defs><title>dice-ico</title><circle class="cls-1" cx="55.68" cy="55.8" r="5.76"/><circle class="cls-1" cx="55.68" cy="90.37" r="5.76"/><circle class="cls-1" cx="90.25" cy="90.37" r="5.76"/><path class="cls-2" d="M152.15,79.3a73,73,0,1,0,73,73A73,73,0,0,0,152.15,79.3Zm40.32,101.89A11.52,11.52,0,0,1,181,192.71h-57.6a11.52,11.52,0,0,1-11.52-11.52v-57.6a11.52,11.52,0,0,1,11.52-11.52H181a11.52,11.52,0,0,1,11.52,11.52v57.6Z" transform="translate(-79.19 -79.3)"/><circle class="cls-1" cx="90.24" cy="55.8" r="5.76"/></svg>