<?xml version="1.0" encoding="utf-8"?>
<!-- Generator: Adobe Illustrator 24.0.0, SVG Export Plug-In . SVG Version: 6.00 Build 0)  -->
<svg version="1.1" id="Layer_1" xmlns="http://www.w3.org/2000/svg" xmlns:xlink="http://www.w3.org/1999/xlink" x="0px" y="0px"
	 viewBox="0 0 304 304" style="enable-background:new 0 0 304 304;" xml:space="preserve">
<style type="text/css">
	.st0{fill:none;}
	.st1{fill-rule:evenodd;clip-rule:evenodd;fill:#FB2D35;}
	.st2{fill:#FFFFFF;}
</style>
<g>
	<path class="st0" d="M155.99,127.3v49.92h36.48V127.3H155.99z M182.29,166.71h-16.13v-28.89h16.13V166.71z"/>
	<path class="st0" d="M148.31,137.82V127.3h-36.48v49.92h26.31h10.18v-10.52v-8.25v-10.13l0,0h-21.47v10.13h11.29v8.25h-16.13
		v-28.89H148.31z"/>
</g>
<g>
	<rect x="166.16" y="137.81" class="st1" width="16.13" height="28.89"/>
	<path class="st1" d="M152.15,79.3c-40.29,0-72.96,32.67-72.96,72.96s32.67,72.96,72.96,72.96c40.29,0,72.96-32.66,72.96-72.96
		S192.45,79.3,152.15,79.3z"/>
</g>
<path class="st2" d="M152.15,102.23c-28.25,0-51.14,22.89-51.14,51.14s22.89,51.14,51.14,51.14s51.14-22.89,51.14-51.14
	S180.4,102.23,152.15,102.23z M124.11,146.65c0.68-8.68,6.64-14.72,11.55-14.72s10.87,6.04,11.55,14.72
	c0.14,1.77-2.23,2.45-3.07,0.93l-1.96-3.51c-1.59-2.82-3.96-4.45-6.5-4.45c-2.54,0-4.91,1.63-6.5,4.45l-1.96,3.51
	C126.33,149.1,123.96,148.4,124.11,146.65z M175.82,171.97c-5.88,7.05-14.5,11.09-23.67,11.09c-9.18,0-17.8-4.04-23.67-11.09
	c-2.78-3.36,2.27-7.57,5.07-4.23c4.62,5.55,11.38,8.7,18.6,8.7c7.22,0,13.98-3.18,18.6-8.7
	C173.55,164.4,178.61,168.63,175.82,171.97L175.82,171.97z M177.1,147.58l-1.96-3.51c-1.59-2.82-3.96-4.45-6.5-4.45
	c-2.54,0-4.91,1.63-6.5,4.45l-1.96,3.51c-0.85,1.51-3.22,0.82-3.07-0.93c0.68-8.68,6.64-14.72,11.55-14.72
	c4.91,0,10.87,6.04,11.55,14.72C180.34,148.42,177.95,149.1,177.1,147.58L177.1,147.58z"/>
</svg>
