<svg id="Layer_1" data-name="Layer 1" xmlns="http://www.w3.org/2000/svg" viewBox="0 0 145.92 145.92"><defs><style>.cls-1{fill:#fb2d35;fill-rule:evenodd;}</style></defs><title>family-ico</title><path class="cls-1" d="M168.51,131.67c-4.91,0-10.87,6-11.55,14.72a1.65,1.65,0,0,0,3.07.93l2-3.51c1.59-2.82,4-4.45,6.5-4.45s4.91,1.63,6.5,4.45l2,3.51a1.67,1.67,0,0,0,3.11-.93C179.38,137.71,173.42,131.67,168.51,131.67Z" transform="translate(-79.04 -79.04)"/><path class="cls-1" d="M170.6,167.48a24.23,24.23,0,0,1-37.2,0c-2.8-3.34-7.85.87-5.07,4.23a30.81,30.81,0,0,0,47.34,0C178.46,168.37,173.4,164.14,170.6,167.48Z" transform="translate(-79.04 -79.04)"/><path class="cls-1" d="M135.53,139.36c2.54,0,4.91,1.63,6.5,4.45l2,3.51a1.64,1.64,0,0,0,3.07-.93c-.68-8.68-6.64-14.72-11.55-14.72s-10.87,6-11.55,14.72a1.67,1.67,0,0,0,3.11.93l2-3.51C130.62,141,133,139.36,135.53,139.36Z" transform="translate(-79.04 -79.04)"/><path class="cls-1" d="M152,79a73,73,0,1,0,73,73A73,73,0,0,0,152,79Zm0,125.21a51.14,51.14,0,1,1,51.14-51.14A51.13,51.13,0,0,1,152,204.25Z" transform="translate(-79.04 -79.04)"/></svg>