<?xml version="1.0" encoding="utf-8"?>
<!-- Generator: Adobe Illustrator 24.0.0, SVG Export Plug-In . SVG Version: 6.00 Build 0)  -->
<svg version="1.1" id="Layer_1" xmlns="http://www.w3.org/2000/svg" xmlns:xlink="http://www.w3.org/1999/xlink" x="0px" y="0px"
	 viewBox="0 0 304 304" style="enable-background:new 0 0 304 304;" xml:space="preserve">
<style type="text/css">
	.st0{fill-rule:evenodd;clip-rule:evenodd;fill:#FB2D35;}
</style>
<path class="st0" d="M152,79.04c-40.29,0-72.96,32.67-72.96,72.96c0,40.29,32.67,72.96,72.96,72.96c40.29,0,72.96-32.66,72.96-72.96
	S192.3,79.04,152,79.04z M186.19,158.72l-30.48,31.47c-1.97,2.03-5.17,2.03-7.13,0l-30.48-31.47c-8.85-9.15-8.33-24.3,1.56-32.74
	c8.63-7.36,21.48-6.03,29.39,2.14l3.1,3.2l3.1-3.2c7.92-8.17,20.76-9.5,29.39-2.14C194.53,134.42,195.05,149.57,186.19,158.72z"/>
</svg>
