<svg id="Layer_1" data-name="Layer 1" xmlns="http://www.w3.org/2000/svg" viewBox="0 0 145.92 145.92"><defs><style>.cls-1{fill:#fb2d35;fill-rule:evenodd;}</style></defs><title>heart-ico</title><path class="cls-1" d="M152,79a73,73,0,1,0,73,73A73,73,0,0,0,152,79Zm34.19,79.68-30.48,31.47a4.94,4.94,0,0,1-7.13,0L118.1,158.72A22.61,22.61,0,0,1,119.66,126c8.63-7.36,21.48-6,29.39,2.14l3.1,3.2,3.1-3.2c7.92-8.17,20.76-9.5,29.39-2.14A22.6,22.6,0,0,1,186.19,158.72Z" transform="translate(-79.04 -79.04)"/></svg>