<svg id="Layer_1" data-name="Layer 1" xmlns="http://www.w3.org/2000/svg" viewBox="0 0 145.92 145.92"><defs><style>.cls-1{fill:#fb2d35;fill-rule:evenodd;}</style></defs><title>local-ico</title><path class="cls-1" d="M125.87,155.81h-4.32a2.89,2.89,0,0,0-2.88,2.88V163a2.89,2.89,0,0,0,2.88,2.88h4.32a2.89,2.89,0,0,0,2.88-2.88v-4.32A2.89,2.89,0,0,0,125.87,155.81Z" transform="translate(-79.19 -79.3)"/><path class="cls-1" d="M125.87,140.72h-4.32a2.89,2.89,0,0,0-2.88,2.88v4.32a2.89,2.89,0,0,0,2.88,2.88h4.32a2.89,2.89,0,0,0,2.88-2.88V143.6A2.89,2.89,0,0,0,125.87,140.72Z" transform="translate(-79.19 -79.3)"/><path class="cls-1" d="M125.87,125.64h-4.32a2.89,2.89,0,0,0-2.88,2.88v4.32a2.89,2.89,0,0,0,2.88,2.88h4.32a2.89,2.89,0,0,0,2.88-2.88v-4.32A2.89,2.89,0,0,0,125.87,125.64Z" transform="translate(-79.19 -79.3)"/><path class="cls-1" d="M152.15,79.3a73,73,0,1,0,73,73A73,73,0,0,0,152.15,79.3Zm40.32,101.76v11.52H138.73V180.29a3.85,3.85,0,0,0-3.85-3.83h-5.76a3.82,3.82,0,0,0-3.83,3.83v12.29H111.84V123.46a11.54,11.54,0,0,1,11.52-11.52h17.26a11.54,11.54,0,0,1,11.54,11.5v20.75H181a11.53,11.53,0,0,1,11.52,11.5v25.37Z" transform="translate(-79.19 -79.3)"/><path class="cls-1" d="M182.75,170.89h-4.32a2.89,2.89,0,0,0-2.88,2.88v4.32a2.89,2.89,0,0,0,2.88,2.88h4.32a2.89,2.89,0,0,0,2.88-2.88v-4.32A2.89,2.89,0,0,0,182.75,170.89Z" transform="translate(-79.19 -79.3)"/><path class="cls-1" d="M166.19,170.89h-4.32a2.89,2.89,0,0,0-2.88,2.88v4.32a2.89,2.89,0,0,0,2.88,2.88h4.32a2.89,2.89,0,0,0,2.88-2.88v-4.32A2.89,2.89,0,0,0,166.19,170.89Z" transform="translate(-79.19 -79.3)"/></svg>