<?xml version="1.0" encoding="utf-8"?>
<!-- Generator: Adobe Illustrator 24.0.0, SVG Export Plug-In . SVG Version: 6.00 Build 0)  -->
<svg version="1.1" id="Layer_1" xmlns="http://www.w3.org/2000/svg" xmlns:xlink="http://www.w3.org/1999/xlink" x="0px" y="0px"
	 viewBox="0 0 304 304" style="enable-background:new 0 0 304 304;" xml:space="preserve">
<style type="text/css">
	.st0{fill-rule:evenodd;clip-rule:evenodd;fill:#FB2D35;}
</style>
<g>
	<path class="st0" d="M125.87,155.81h-4.32c-1.58,0-2.88,1.3-2.88,2.88v4.32c0,1.58,1.3,2.88,2.88,2.88h4.32
		c1.58,0,2.88-1.3,2.88-2.88v-4.32C128.75,157.1,127.45,155.81,125.87,155.81z"/>
	<path class="st0" d="M125.87,140.72h-4.32c-1.58,0-2.88,1.3-2.88,2.88v4.32c0,1.58,1.3,2.88,2.88,2.88h4.32
		c1.58,0,2.88-1.3,2.88-2.88v-4.32C128.75,142.02,127.45,140.72,125.87,140.72z"/>
	<path class="st0" d="M125.87,125.64h-4.32c-1.58,0-2.88,1.3-2.88,2.88v4.32c0,1.58,1.3,2.88,2.88,2.88h4.32
		c1.58,0,2.88-1.3,2.88-2.88v-4.32C128.75,126.94,127.45,125.64,125.87,125.64z"/>
	<path class="st0" d="M152.15,79.3c-40.29,0-72.96,32.67-72.96,72.96s32.67,72.96,72.96,72.96c40.29,0,72.96-32.66,72.96-72.96
		S192.45,79.3,152.15,79.3z M192.47,181.06v11.52h-11.52h-6.62h-35.6v-12.29c-0.02-2.12-1.73-3.83-3.85-3.83h-5.76
		c-2.12,0-3.83,1.71-3.83,3.83v0.77v11.52h-1.93h-11.52v-11.52v-57.6c0-6.35,5.17-11.52,11.52-11.52h17.26
		c6.37,0,11.52,5.15,11.54,11.5v20.75h28.8c6.35,0,11.5,5.15,11.52,11.5V181.06z"/>
	<path class="st0" d="M182.75,170.89h-4.32c-1.58,0-2.88,1.3-2.88,2.88v4.32c0,1.58,1.3,2.88,2.88,2.88h4.32
		c1.58,0,2.88-1.3,2.88-2.88v-4.32C185.63,172.19,184.34,170.89,182.75,170.89z"/>
	<path class="st0" d="M166.19,170.89h-4.32c-1.58,0-2.88,1.3-2.88,2.88v4.32c0,1.58,1.3,2.88,2.88,2.88h4.32
		c1.58,0,2.88-1.3,2.88-2.88v-4.32C169.07,172.19,167.78,170.89,166.19,170.89z"/>
</g>
</svg>
