<svg xmlns="http://www.w3.org/2000/svg" viewBox="0 0 1024 1024"><defs><style>.cls-1{fill:#fff;}.cls-2{fill:#11aae0;}.cls-3{fill:#333398;}</style></defs><title>MarmaladeLOGO-blue</title><g id="WHITE"><path class="cls-1" d="M609.9,709.13l17.76-10.22L559.08,579.72l-35.65,20.52,7.29,12.66-.42.25c-13.9-7.73-31.34-4.27-44.44,3.27-33.53,19.3-42.26,57.8-26.89,91.17q-7.38.6-14.65,1.34l0,0-.09,0-1.16.12-49.83-86.61L357.61,643l38.92,67.62c-18.73-1.83-39.42-7.19-55-20.27-12-12.63-50-20.26-95.11-20.26-54.71,0-101.17,17.59-101.17,35.37,0,11.73,20.23,20.6,49.72,25.29h0c5.16.82,10.6,1.51,16.27,2.07,20.29,3.69,50.39,13.59,34.09,39.09h0c-10.86,9.86-16.83,20.27-16.83,30.84,0,49,121.87,77,279,77,150.83,0,267.26-40.47,267.26-94.62C774.72,747.9,708.69,719.39,609.9,709.13Zm-25.3-2.59.25.43-.68-.05v-.13Zm-74.43-59.8c17.4-10,37.48-4.41,47.49,13,9.23,16,5.66,35-9,45.55q-19.8-.49-40.68-.12a35.49,35.49,0,0,1-9.54-10.77C488.66,677.42,492.77,656.75,510.17,646.74Zm-296,76.46c-8.78-2.09-16.78-3.15-16.78-3.15a190.91,190.91,0,0,1-26.76-4.12c-11.56-3.37-13.8-8-13.8-8-6.17-7.63,3.17-13.23,3.14-12.9-.31,3.87-3.36,6,5.69,12.92s27.27,6,40,9.58A93.75,93.75,0,0,1,221,723.51l-2.95.82C215.74,723.64,214.18,723.2,214.18,723.2ZM490,866.68c-229.49,0-243.64-65.09-243.64-65.09,22.14,28.28,81.69,58.16,244.49,57.52,157-.62,225.2-29,225.2-29C647.8,866.68,490,866.68,490,866.68Z"/><path class="cls-1" d="M811,832.17c-24.28-.7-45.19,8.75-45.49,18.91s20.14,17.17,44.41,17.88,44.26-8.78,44.55-18.93S835.29,832.87,811,832.17Zm-38.65,20.22c.06.09.14.19.21.28A2.55,2.55,0,0,1,772.37,852.39ZM813,863.67c-27.24,0-37.25-7.77-39.87-10.41,4.32,4.11,18.3,7.67,40,7.58,22.44-.11,32.07-3.94,32.07-3.94C835.6,863.35,813,863.67,813,863.67Z"/><polygon class="cls-1" points="311.1 472.12 241.28 353.93 241.49 353.24 345.94 452.08 374.22 435.8 341.26 295.82 341.96 295.99 409.06 415.75 448.43 393.09 356.99 234.18 301.78 265.95 329.15 389.4 328.7 389.67 235.26 304.22 180.28 335.86 271.73 494.78 311.1 472.12"/><path class="cls-1" d="M522.68,355.91c12.89-7.42,25.63-21,25-37l.44-.24,7.4,12.88L591.21,311,522.63,191.86,487,212.37,494.26,225l-.43.25C480,217.56,462.5,221,449.4,228.56c-35.86,20.63-43.35,63.26-23.33,98C446.46,362,486,377,522.68,355.91Zm-49-97c17.4-10,37.48-4.42,47.48,13,9.9,17.18,5.1,37.66-12.29,47.66-16.75,9.65-37.42,3.54-46.94-13C452.2,289.56,456.32,268.89,473.71,258.88Z"/><path class="cls-1" d="M638,283.69l-37.69-65.5c-10.63-18.46.09-28.64,15.53-38.09l-20.65-35.86c-13.73,7.9-21,18.1-20.2,33.92l-.44.25-7.28-12.67L533.71,185,602.3,304.2Z"/><path class="cls-1" d="M563.17,344.74l7.28,12.67-.43.25c-13.87-7.74-31.32-4.27-44.42,3.27-35.86,20.64-43.36,63.26-23.34,98,20.39,35.43,59.89,50.43,96.62,29.31,12.88-7.42,25.62-21,25-37l.43-.24,7.41,12.88,35.65-20.51L598.82,324.23ZM585.1,451.9c-16.75,9.64-37.43,3.53-46.94-13-9.77-17-5.65-37.62,11.75-47.63s37.47-4.42,47.48,13C607.28,421.41,602.49,441.89,585.1,451.9Z"/><path class="cls-1" d="M425.23,465c16.51-9.5,25.88,2.83,33.42,15.93l36.46,63.35,35.58-20.47-37.44-65.07c-10.51-18.25-18-32.8-39.43-38.77-13.31-3.78-26.43-.81-38.22,6-16.07,9.25-24.71,24.51-25.5,43-15.07-9.33-31.09-10.4-46.53-1.52-13.5,7.78-23.34,19.43-23.15,35.62l-.44.25-7.28-12.67-33.23,19.11,68.58,119.19,35.59-20.47L347.18,545c-8-14-11.55-28.51,4.95-38,15-8.64,25.09,2.43,32.13,14.66l37.32,64.86,35.58-20.47L419.72,501C411.93,487.47,409.37,474.09,425.23,465Z"/><path class="cls-1" d="M626.12,536.53c-35.86,20.64-42.49,62.77-22.6,97.34,20.26,35.22,59.9,50.43,96.4,29.43,14-8,25.79-20.27,26-37.27l.43-.25,7.42,12.89,33.93-19.53L676.26,460.23l-35.65,20.51,28.67,49.82C653.93,526.24,639.87,528.62,626.12,536.53Zm73.27,41.88c10.14,17.61,5,38-12.82,48.26s-37.51,3.86-47.53-13.52-4.07-37.4,13.11-47.29S689.5,561.24,699.39,578.41Z"/><path class="cls-1" d="M881,502.9l-36.5,21c-1.59,10.64-5.6,18.08-15.27,23.64-14,8-30.58,6.46-40.89-6.48l89.34-51.41a55.05,55.05,0,0,0-4.58-9.94c-20.64-35.86-63.86-49.87-100.37-28.86-35,20.14-45.56,65.38-25.66,99.95a73,73,0,0,0,99.47,26.81C873.37,562.17,884.41,532.67,881,502.9Zm-90.75-22.1c12.89-7.41,28.59-6.45,38.8,4.83l-54.12,31.14C770.3,502.28,777.35,488.22,790.24,480.8Z"/><path class="cls-1" d="M174.46,383.9c.61-.35,1.22-.7,1.81-1.09l-11.73-20.6-7.09,4,5.91,10.37c-4.47,1.12-8.16-1.32-10.32-5.12-3.36-5.93-.68-12.23,5-15.47,5.49-3.12,12.25-1.94,15.48,3.74a9.81,9.81,0,0,1-.14,10.22l5.66,9.94c6.21-6.32,6.68-16.85,2.41-24.36-5.8-10.19-18-14.34-28.46-8.41A20.91,20.91,0,0,0,145.27,376C151.34,386.62,163.81,390,174.46,383.9Z"/><path class="cls-1" d="M174.8,426.21l26.06-14.83-4.44-7.79-2.77,1.58-.05-.1c1.7-3,1-6.82-.67-9.68-4.46-7.84-13.74-9.52-21.35-5.19s-11.05,13-6.49,21c1.6,2.81,4.56,5.6,8,5.49l.05.1-2.82,1.59ZM173,408.26A7.46,7.46,0,0,1,175.92,398,7.48,7.48,0,1,1,173,408.26Z"/><path class="cls-1" d="M210.47,456.67l-13.85,7.89,4.43,7.79,14.23-8.09c4-2.28,7.17-3.9,8.49-8.56a10.68,10.68,0,0,0-1.27-8.35,10.91,10.91,0,0,0-9.35-5.62,9.42,9.42,0,0,0,.37-10.16c-1.68-2.95-4.22-5.11-7.75-5.1l-.05-.09,2.77-1.57-4.14-7.27-26,14.82,4.43,7.79,13.85-7.89c3-1.73,6.22-2.48,8.28,1.14,1.88,3.29-.55,5.47-3.23,7l-14.17,8.07,4.44,7.8,14.22-8.1c3-1.68,5.88-2.22,7.86,1.25S213.33,455,210.47,456.67Z"/><path class="cls-1" d="M218.69,478.53l11.1,19.53a11.93,11.93,0,0,0,2.18-1c7.84-4.46,10.93-13.86,6.39-21.84a16,16,0,0,0-27.71,15.95c3.35,5.87,9.76,8.31,16.26,7.59l-4.54-8a6.41,6.41,0,0,1-5.14-3.35C215.49,484.39,215.85,480.77,218.69,478.53Zm13.13.48a6.67,6.67,0,0,1-1.09,8.46L224,475.63A6.68,6.68,0,0,1,231.82,479Z"/><path class="cls-1" d="M253.58,541.39c5.44-3.1,5.83-8,5.33-13.79-.18-1.83-1-7.4-.05-9a2.81,2.81,0,0,1,1.27-1.16,3.32,3.32,0,0,1,4.45,1.5c1.28,2.25.21,3.74-1.56,5.11l5,8.79c2.66-1.65,4.34-3.17,5.54-6.21,1.42-3.72.52-8.25-1.4-11.62-3.37-5.92-10.67-10-17.15-6.35-5.44,3.11-5.8,8.59-5.12,14.16.17,1.28.33,2.55.45,3.86.25,2.28.56,4.58-1.69,5.87a3.86,3.86,0,0,1-5.26-1.49c-1.46-2.58.44-5,2.69-6.31l-5-8.83-1.13.65c-7.42,4.22-7.88,11.81-3.9,18.81S246.3,545.53,253.58,541.39Z"/><polygon class="cls-1" points="271.52 549.32 273.65 553.07 279.57 549.71 277.43 545.95 286.11 541.01 281.68 533.22 273 538.16 270.81 534.32 264.89 537.68 267.08 541.53 246.95 552.99 251.38 560.78 271.52 549.32"/><path class="cls-1" d="M269.43,592.5l26.06-14.82-4.43-7.79L276.74,578c-3,1.71-6,1.79-7.85-1.44-2-3.52-.12-5.46,2.84-7.15l14.41-8.2-4.44-7.79-15.58,8.87c-3.24,1.84-5.27,3.3-6.69,6.91a11.19,11.19,0,0,0,1.07,9.53c1.66,2.9,3.87,4.94,7.46,4.7l.05.09-2.77,1.58Z"/><path class="cls-1" d="M288.35,625.74,323.08,606l-4.44-7.79-10.88,6.19A11.72,11.72,0,0,0,306.5,595c-4.46-7.84-13.63-9.33-21.19-5s-11.06,13-6.52,21c1.74,3.05,4.39,5.64,8.1,5.71l.05.08-2.81,1.61Zm-1.56-17.69a7.62,7.62,0,1,1,10.51,2.84A7.45,7.45,0,0,1,286.79,608.05Z"/><polygon class="cls-1" points="330.98 619.86 326.55 612.08 320.64 615.44 325.07 623.23 330.98 619.86"/><rect class="cls-1" x="292.07" y="623.84" width="29.98" height="8.96" transform="translate(-270.55 234.07) rotate(-29.64)"/><path class="cls-1" d="M328.05,665.15c8-4.53,10.4-13.93,5.86-21.91s-13.85-10.69-21.83-6.15S301.68,651,306.22,659,320.07,669.69,328.05,665.15Zm-11.53-20.27a7.19,7.19,0,1,1-3,10A7.33,7.33,0,0,1,316.52,644.88Z"/></g><g id="WHITE_BLUE"><path class="cls-2" d="M507.46,705.16c-21.62.41-42.77,1.71-63.14,3.77l0,0-.09,0q-9.17.93-18.13,2.05c-22.2,1.42-59.81.11-84.65-20.67-12-12.63-50-20.26-95.11-20.26-54.71,0-101.17,17.59-101.17,35.37,0,11.73,20.23,20.6,49.72,25.29h0c5.16.82,10.6,1.51,16.27,2.07,20.29,3.69,50.39,13.59,34.09,39.09h0c-10.86,9.86-16.83,20.27-16.83,30.84,0,49,121.87,77,279,77,150.83,0,267.26-40.47,267.26-94.62C774.72,736.13,660.37,702.23,507.46,705.16Zm-293.28,18c-8.78-2.09-16.78-3.15-16.78-3.15a190.91,190.91,0,0,1-26.76-4.12c-11.56-3.37-13.8-8-13.8-8-6.17-7.63,3.17-13.23,3.14-12.9-.31,3.87-3.36,6,5.69,12.92s27.27,6,40,9.58A93.75,93.75,0,0,1,221,723.51l-2.95.82C215.74,723.64,214.18,723.2,214.18,723.2ZM490,866.68c-229.49,0-243.64-65.09-243.64-65.09,22.14,28.28,81.69,58.16,244.49,57.52,157-.62,225.2-29,225.2-29C647.8,866.68,490,866.68,490,866.68Z"/><path class="cls-2" d="M811,832.17c-24.28-.7-45.19,8.75-45.49,18.91s20.14,17.17,44.41,17.88,44.26-8.78,44.55-18.93S835.29,832.87,811,832.17Zm-38.65,20.22c.06.09.14.19.21.28A2.55,2.55,0,0,1,772.37,852.39ZM813,863.67c-27.24,0-37.25-7.77-39.87-10.41,4.32,4.11,18.3,7.67,40,7.58,22.44-.11,32.07-3.94,32.07-3.94C835.6,863.35,813,863.67,813,863.67Z"/><polygon class="cls-1" points="311.1 472.12 241.28 353.93 241.49 353.24 345.94 452.08 374.22 435.8 341.26 295.82 341.96 295.99 409.06 415.75 448.43 393.09 356.99 234.18 301.78 265.95 329.15 389.4 328.7 389.67 235.26 304.22 180.28 335.86 271.73 494.78 311.1 472.12"/><path class="cls-1" d="M522.68,355.91c12.89-7.42,25.63-21,25-37l.44-.24,7.4,12.88L591.21,311,522.63,191.86,487,212.37,494.26,225l-.43.25C480,217.56,462.5,221,449.4,228.56c-35.86,20.63-43.35,63.26-23.33,98C446.46,362,486,377,522.68,355.91Zm-49-97c17.4-10,37.48-4.42,47.48,13,9.9,17.18,5.1,37.66-12.29,47.66-16.75,9.65-37.42,3.54-46.94-13C452.2,289.56,456.32,268.89,473.71,258.88Z"/><path class="cls-1" d="M638,283.69l-37.69-65.5c-10.63-18.46.09-28.64,15.53-38.09l-20.65-35.86c-13.73,7.9-21,18.1-20.2,33.92l-.44.25-7.28-12.67L533.71,185,602.3,304.2Z"/><path class="cls-1" d="M631.75,463.93l35.65-20.51L598.82,324.23l-35.65,20.51,7.28,12.67-.43.25c-13.87-7.74-31.32-4.27-44.42,3.27-35.86,20.64-43.36,63.26-23.34,98,20.39,35.43,59.89,50.43,96.62,29.31,12.88-7.42,25.62-21,25-37l.43-.24Zm-46.65-12c-16.75,9.64-37.43,3.53-46.94-13-9.77-17-5.65-37.62,11.75-47.63s37.47-4.42,47.48,13C607.28,421.41,602.49,441.89,585.1,451.9Z"/><path class="cls-1" d="M347.18,545c-8-14-11.55-28.51,4.95-38,15-8.64,25.09,2.43,32.13,14.66l37.32,64.86,35.58-20.47L419.72,501c-7.79-13.53-10.35-26.91,5.51-36.05,16.51-9.5,25.88,2.83,33.42,15.93l36.46,63.35,35.58-20.47-37.44-65.07c-10.51-18.25-18-32.8-39.43-38.77-13.31-3.78-26.43-.81-38.22,6-16.07,9.25-24.71,24.51-25.5,43-15.07-9.33-31.09-10.4-46.53-1.52-13.5,7.78-23.34,19.43-23.15,35.62l-.44.25-7.28-12.67-33.23,19.11,68.58,119.19,35.59-20.47Z"/><path class="cls-1" d="M523.43,600.24l7.29,12.66-.42.25c-13.9-7.73-31.34-4.27-44.44,3.27-35.86,20.64-43.36,63.26-23.33,98.05a82.71,82.71,0,0,0,24.16,26.83H563c11.44-7.75,21.67-20.19,21.13-34.51l.43-.25L592,719.42l35.65-20.51L559.08,579.72ZM545.36,707.4c-16.75,9.63-37.42,3.52-46.94-13-9.76-17-5.65-37.63,11.75-47.64s37.48-4.41,47.49,13C567.54,676.9,562.75,697.39,545.36,707.4Z"/><path class="cls-1" d="M640.61,480.74l28.67,49.82c-15.35-4.32-29.41-1.94-43.16,6-35.86,20.64-42.49,62.77-22.6,97.34,20.26,35.22,59.9,50.43,96.4,29.43,14-8,25.79-20.27,26-37.27l.43-.25,7.42,12.89,33.93-19.53L676.26,460.23Zm58.78,97.67c10.14,17.61,5,38-12.82,48.26s-37.51,3.86-47.53-13.52-4.07-37.4,13.11-47.29S689.5,561.24,699.39,578.41Z"/><path class="cls-1" d="M881,502.9l-36.5,21c-1.59,10.64-5.6,18.08-15.27,23.64-14,8-30.58,6.46-40.89-6.48l89.34-51.41a55.05,55.05,0,0,0-4.58-9.94c-20.64-35.86-63.86-49.87-100.37-28.86-35,20.14-45.56,65.38-25.66,99.95a73,73,0,0,0,99.47,26.81C873.37,562.17,884.41,532.67,881,502.9Zm-90.75-22.1c12.89-7.41,28.59-6.45,38.8,4.83l-54.12,31.14C770.3,502.28,777.35,488.22,790.24,480.8Z"/><polygon class="cls-1" points="357.61 642.96 414.21 741.3 461.66 741.3 393.27 622.44 357.61 642.96"/><path class="cls-1" d="M174.46,383.9c.61-.35,1.22-.7,1.81-1.09l-11.73-20.6-7.09,4,5.91,10.37c-4.47,1.12-8.16-1.32-10.32-5.12-3.36-5.93-.68-12.23,5-15.47,5.49-3.12,12.25-1.94,15.48,3.74a9.81,9.81,0,0,1-.14,10.22l5.66,9.94c6.21-6.32,6.68-16.85,2.41-24.36-5.8-10.19-18-14.34-28.46-8.41A20.91,20.91,0,0,0,145.27,376C151.34,386.62,163.81,390,174.46,383.9Z"/><path class="cls-1" d="M196.42,403.59l-2.77,1.58-.05-.1c1.7-3,1-6.82-.67-9.68-4.46-7.84-13.74-9.52-21.35-5.19s-11.05,13-6.49,21c1.6,2.81,4.56,5.6,8,5.49l.05.1-2.82,1.59,4.44,7.8,26.06-14.83Zm-13,7.4A7.39,7.39,0,0,1,173,408.26,7.46,7.46,0,0,1,175.92,398,7.48,7.48,0,1,1,183.41,411Z"/><path class="cls-1" d="M223.77,455.7a10.68,10.68,0,0,0-1.27-8.35,10.91,10.91,0,0,0-9.35-5.62,9.42,9.42,0,0,0,.37-10.16c-1.68-2.95-4.22-5.11-7.75-5.1l-.05-.09,2.77-1.57-4.14-7.27-26,14.82,4.43,7.79,13.85-7.89c3-1.73,6.22-2.48,8.28,1.14,1.88,3.29-.55,5.47-3.23,7l-14.17,8.07,4.44,7.8,14.22-8.1c3-1.68,5.88-2.22,7.86,1.25s-.65,5.64-3.51,7.27l-13.85,7.89,4.43,7.79,14.23-8.09C219.27,462,222.45,460.36,223.77,455.7Z"/><path class="cls-1" d="M238.36,475.23a16,16,0,0,0-27.71,15.95c3.35,5.87,9.76,8.31,16.26,7.59l-4.54-8a6.41,6.41,0,0,1-5.14-3.35c-1.74-3.05-1.38-6.67,1.46-8.91l11.1,19.53a11.93,11.93,0,0,0,2.18-1C239.81,492.61,242.9,483.21,238.36,475.23Zm-7.63,12.24L224,475.63a7.09,7.09,0,0,1,6.74,11.84Z"/><path class="cls-1" d="M253.58,541.39c5.44-3.1,5.83-8,5.33-13.79-.18-1.83-1-7.4-.05-9a2.81,2.81,0,0,1,1.27-1.16,3.32,3.32,0,0,1,4.45,1.5c1.28,2.25.21,3.74-1.56,5.11l5,8.79c2.66-1.65,4.34-3.17,5.54-6.21,1.42-3.72.52-8.25-1.4-11.62-3.37-5.92-10.67-10-17.15-6.35-5.44,3.11-5.8,8.59-5.12,14.16.17,1.28.33,2.55.45,3.86.25,2.28.56,4.58-1.69,5.87a3.86,3.86,0,0,1-5.26-1.49c-1.46-2.58.44-5,2.69-6.31l-5-8.83-1.13.65c-7.42,4.22-7.88,11.81-3.9,18.81S246.3,545.53,253.58,541.39Z"/><polygon class="cls-1" points="273.65 553.07 279.57 549.71 277.43 545.95 286.11 541.01 281.68 533.22 273 538.16 270.81 534.32 264.89 537.68 267.08 541.53 246.95 552.99 251.38 560.78 271.52 549.32 273.65 553.07"/><path class="cls-1" d="M291.06,569.89,276.74,578c-3,1.71-6,1.79-7.85-1.44-2-3.52-.12-5.46,2.84-7.15l14.41-8.2-4.44-7.79-15.58,8.87c-3.24,1.84-5.27,3.3-6.69,6.91a11.19,11.19,0,0,0,1.07,9.53c1.66,2.9,3.87,4.94,7.46,4.7l.05.09-2.77,1.58,4.19,7.36,26.06-14.82Z"/><path class="cls-1" d="M318.64,598.18l-10.88,6.19A11.72,11.72,0,0,0,306.5,595c-4.46-7.84-13.63-9.33-21.19-5s-11.06,13-6.52,21c1.74,3.05,4.39,5.64,8.1,5.71l.05.08-2.81,1.61,4.22,7.42L323.08,606ZM297.3,610.89a7.45,7.45,0,0,1-10.51-2.84,7.62,7.62,0,1,1,10.51,2.84Z"/><polygon class="cls-1" points="330.98 619.86 326.55 612.08 320.64 615.44 325.07 623.23 330.98 619.86"/><rect class="cls-1" x="292.07" y="623.84" width="29.98" height="8.96" transform="translate(-270.62 234.16) rotate(-29.65)"/><path class="cls-1" d="M312.08,637.09c-8,4.54-10.4,13.93-5.86,21.91s13.85,10.69,21.83,6.15,10.4-13.93,5.86-21.91S320.06,632.55,312.08,637.09Zm11.54,20.27a7.19,7.19,0,1,1,3-10A7.32,7.32,0,0,1,323.62,657.36Z"/></g><g id="ORIGINAL"><path class="cls-2" d="M507.46,705.16c-21.62.41-42.77,1.71-63.14,3.77l0,0-.09,0q-9.17.93-18.13,2.05c-22.2,1.42-59.81.11-84.65-20.67-12-12.63-50-20.26-95.11-20.26-54.71,0-101.17,17.59-101.17,35.37,0,11.73,20.23,20.6,49.72,25.29h0c5.16.82,10.6,1.51,16.27,2.07,20.29,3.69,50.39,13.59,34.09,39.09h0c-10.86,9.86-16.83,20.27-16.83,30.84,0,49,121.87,77,279,77,150.83,0,267.26-40.47,267.26-94.62C774.72,736.13,660.37,702.23,507.46,705.16Zm-293.28,18c-8.78-2.09-16.78-3.15-16.78-3.15a190.91,190.91,0,0,1-26.76-4.12c-11.56-3.37-13.8-8-13.8-8-6.17-7.63,3.17-13.23,3.14-12.9-.31,3.87-3.36,6,5.69,12.92s27.27,6,40,9.58A93.75,93.75,0,0,1,221,723.51l-2.95.82C215.74,723.64,214.18,723.2,214.18,723.2ZM490,866.68c-229.49,0-243.64-65.09-243.64-65.09,22.14,28.28,81.69,58.16,244.49,57.52,157-.62,225.2-29,225.2-29C647.8,866.68,490,866.68,490,866.68Z"/><path class="cls-2" d="M811,832.17c-24.28-.7-45.19,8.75-45.49,18.91s20.14,17.17,44.41,17.88,44.26-8.78,44.55-18.93S835.29,832.87,811,832.17Zm-38.65,20.22c.06.09.14.19.21.28A2.55,2.55,0,0,1,772.37,852.39ZM813,863.67c-27.24,0-37.25-7.77-39.87-10.41,4.32,4.11,18.3,7.67,40,7.58,22.44-.11,32.07-3.94,32.07-3.94C835.6,863.35,813,863.67,813,863.67Z"/><polygon class="cls-3" points="311.1 472.12 241.28 353.93 241.49 353.24 345.94 452.08 374.22 435.8 341.26 295.82 341.96 295.99 409.06 415.75 448.43 393.09 356.99 234.18 301.78 265.95 329.15 389.4 328.7 389.67 235.26 304.22 180.28 335.86 271.73 494.78 311.1 472.12"/><path class="cls-3" d="M522.68,355.91c12.89-7.42,25.63-21,25-37l.44-.24,7.4,12.88L591.21,311,522.63,191.86,487,212.37,494.26,225l-.43.25C480,217.56,462.5,221,449.4,228.56c-35.86,20.63-43.35,63.26-23.33,98C446.46,362,486,377,522.68,355.91Zm-49-97c17.4-10,37.48-4.42,47.48,13,9.9,17.18,5.1,37.66-12.29,47.66-16.75,9.65-37.42,3.54-46.94-13C452.2,289.56,456.32,268.89,473.71,258.88Z"/><path class="cls-3" d="M638,283.69l-37.69-65.5c-10.63-18.46.09-28.64,15.53-38.09l-20.65-35.86c-13.73,7.9-21,18.1-20.2,33.92l-.44.25-7.28-12.67L533.71,185,602.3,304.2Z"/><path class="cls-3" d="M631.75,463.93l35.65-20.51L598.82,324.23l-35.65,20.51,7.28,12.67-.43.25c-13.87-7.74-31.32-4.27-44.42,3.27-35.86,20.64-43.36,63.26-23.34,98,20.39,35.43,59.89,50.43,96.62,29.31,12.88-7.42,25.62-21,25-37l.43-.24Zm-46.65-12c-16.75,9.64-37.43,3.53-46.94-13-9.77-17-5.65-37.62,11.75-47.63s37.47-4.42,47.48,13C607.28,421.41,602.49,441.89,585.1,451.9Z"/><path class="cls-3" d="M347.18,545c-8-14-11.55-28.51,4.95-38,15-8.64,25.09,2.43,32.13,14.66l37.32,64.86,35.58-20.47L419.72,501c-7.79-13.53-10.35-26.91,5.51-36.05,16.51-9.5,25.88,2.83,33.42,15.93l36.46,63.35,35.58-20.47-37.44-65.07c-10.51-18.25-18-32.8-39.43-38.77-13.31-3.78-26.43-.81-38.22,6-16.07,9.25-24.71,24.51-25.5,43-15.07-9.33-31.09-10.4-46.53-1.52-13.5,7.78-23.34,19.43-23.15,35.62l-.44.25-7.28-12.67-33.23,19.11,68.58,119.19,35.59-20.47Z"/><path class="cls-3" d="M523.43,600.24l7.29,12.66-.42.25c-13.9-7.73-31.34-4.27-44.44,3.27-35.86,20.64-43.36,63.26-23.33,98.05a82.71,82.71,0,0,0,24.16,26.83H563c11.44-7.75,21.67-20.19,21.13-34.51l.43-.25L592,719.42l35.65-20.51L559.08,579.72ZM545.36,707.4c-16.75,9.63-37.42,3.52-46.94-13-9.76-17-5.65-37.63,11.75-47.64s37.48-4.41,47.49,13C567.54,676.9,562.75,697.39,545.36,707.4Z"/><path class="cls-3" d="M640.61,480.74l28.67,49.82c-15.35-4.32-29.41-1.94-43.16,6-35.86,20.64-42.49,62.77-22.6,97.34,20.26,35.22,59.9,50.43,96.4,29.43,14-8,25.79-20.27,26-37.27l.43-.25,7.42,12.89,33.93-19.53L676.26,460.23Zm58.78,97.67c10.14,17.61,5,38-12.82,48.26s-37.51,3.86-47.53-13.52-4.07-37.4,13.11-47.29S689.5,561.24,699.39,578.41Z"/><path class="cls-3" d="M881,502.9l-36.5,21c-1.59,10.64-5.6,18.08-15.27,23.64-14,8-30.58,6.46-40.89-6.48l89.34-51.41a55.05,55.05,0,0,0-4.58-9.94c-20.64-35.86-63.86-49.87-100.37-28.86-35,20.14-45.56,65.38-25.66,99.95a73,73,0,0,0,99.47,26.81C873.37,562.17,884.41,532.67,881,502.9Zm-90.75-22.1c12.89-7.41,28.59-6.45,38.8,4.83l-54.12,31.14C770.3,502.28,777.35,488.22,790.24,480.8Z"/><polygon class="cls-3" points="357.61 642.96 414.21 741.3 461.66 741.3 393.27 622.44 357.61 642.96"/><path class="cls-3" d="M174.46,383.9c.61-.35,1.22-.7,1.81-1.09l-11.73-20.6-7.09,4,5.91,10.37c-4.47,1.12-8.16-1.32-10.32-5.12-3.36-5.93-.68-12.23,5-15.47,5.49-3.12,12.25-1.94,15.48,3.74a9.81,9.81,0,0,1-.14,10.22l5.66,9.94c6.21-6.32,6.68-16.85,2.41-24.36-5.8-10.19-18-14.34-28.46-8.41A20.91,20.91,0,0,0,145.27,376C151.34,386.62,163.81,390,174.46,383.9Z"/><path class="cls-3" d="M196.42,403.59l-2.77,1.58-.05-.1c1.7-3,1-6.82-.67-9.68-4.46-7.84-13.74-9.52-21.35-5.19s-11.05,13-6.49,21c1.6,2.81,4.56,5.6,8,5.49l.05.1-2.82,1.59,4.44,7.8,26.06-14.83Zm-13,7.4A7.39,7.39,0,0,1,173,408.26,7.46,7.46,0,0,1,175.92,398,7.48,7.48,0,1,1,183.41,411Z"/><path class="cls-3" d="M223.77,455.7a10.68,10.68,0,0,0-1.27-8.35,10.91,10.91,0,0,0-9.35-5.62,9.42,9.42,0,0,0,.37-10.16c-1.68-2.95-4.22-5.11-7.75-5.1l-.05-.09,2.77-1.57-4.14-7.27-26,14.82,4.43,7.79,13.85-7.89c3-1.73,6.22-2.48,8.28,1.14,1.88,3.29-.55,5.47-3.23,7l-14.17,8.07,4.44,7.8,14.22-8.1c3-1.68,5.88-2.22,7.86,1.25s-.65,5.64-3.51,7.27l-13.85,7.89,4.43,7.79,14.23-8.09C219.27,462,222.45,460.36,223.77,455.7Z"/><path class="cls-3" d="M238.36,475.23a16,16,0,0,0-27.71,15.95c3.35,5.87,9.76,8.31,16.26,7.59l-4.54-8a6.41,6.41,0,0,1-5.14-3.35c-1.74-3.05-1.38-6.67,1.46-8.91l11.1,19.53a11.93,11.93,0,0,0,2.18-1C239.81,492.61,242.9,483.21,238.36,475.23Zm-7.63,12.24L224,475.63a7.09,7.09,0,0,1,6.74,11.84Z"/><path class="cls-3" d="M253.58,541.39c5.44-3.1,5.83-8,5.33-13.79-.18-1.83-1-7.4-.05-9a2.81,2.81,0,0,1,1.27-1.16,3.32,3.32,0,0,1,4.45,1.5c1.28,2.25.21,3.74-1.56,5.11l5,8.79c2.66-1.65,4.34-3.17,5.54-6.21,1.42-3.72.52-8.25-1.4-11.62-3.37-5.92-10.67-10-17.15-6.35-5.44,3.11-5.8,8.59-5.12,14.16.17,1.28.33,2.55.45,3.86.25,2.28.56,4.58-1.69,5.87a3.86,3.86,0,0,1-5.26-1.49c-1.46-2.58.44-5,2.69-6.31l-5-8.83-1.13.65c-7.42,4.22-7.88,11.81-3.9,18.81S246.3,545.53,253.58,541.39Z"/><polygon class="cls-3" points="273.65 553.07 279.57 549.71 277.43 545.95 286.11 541.01 281.68 533.22 273 538.16 270.81 534.32 264.89 537.68 267.08 541.53 246.95 552.99 251.38 560.78 271.52 549.32 273.65 553.07"/><path class="cls-3" d="M291.06,569.89,276.74,578c-3,1.71-6,1.79-7.85-1.44-2-3.52-.12-5.46,2.84-7.15l14.41-8.2-4.44-7.79-15.58,8.87c-3.24,1.84-5.27,3.3-6.69,6.91a11.19,11.19,0,0,0,1.07,9.53c1.66,2.9,3.87,4.94,7.46,4.7l.05.09-2.77,1.58,4.19,7.36,26.06-14.82Z"/><path class="cls-3" d="M318.64,598.18l-10.88,6.19A11.72,11.72,0,0,0,306.5,595c-4.46-7.84-13.63-9.33-21.19-5s-11.06,13-6.52,21c1.74,3.05,4.39,5.64,8.1,5.71l.05.08-2.81,1.61,4.22,7.42L323.08,606ZM297.3,610.89a7.45,7.45,0,0,1-10.51-2.84,7.62,7.62,0,1,1,10.51,2.84Z"/><polygon class="cls-3" points="330.98 619.86 326.55 612.08 320.64 615.44 325.07 623.23 330.98 619.86"/><rect class="cls-3" x="292.07" y="623.84" width="29.98" height="8.96" transform="translate(-270.62 234.16) rotate(-29.65)"/><path class="cls-3" d="M312.08,637.09c-8,4.54-10.4,13.93-5.86,21.91s13.85,10.69,21.83,6.15,10.4-13.93,5.86-21.91S320.06,632.55,312.08,637.09Zm11.54,20.27a7.19,7.19,0,1,1,3-10A7.32,7.32,0,0,1,323.62,657.36Z"/></g></svg>