<?xml version="1.0" standalone="no"?>
<!DOCTYPE svg PUBLIC "-//W3C//DTD SVG 20010904//EN"
 "http://www.w3.org/TR/2001/REC-SVG-20010904/DTD/svg10.dtd">
<svg version="1.0" xmlns="http://www.w3.org/2000/svg"
 width="700.000000pt" height="700.000000pt" viewBox="0 0 700.000000 700.000000"
 preserveAspectRatio="xMidYMid meet">
<metadata>
Created by potrace 1.11, written by Peter Selinger 2001-2013
</metadata>
<g transform="translate(0.000000,700.000000) scale(0.100000,-0.100000)"
fill="#000000" stroke="none">
<path d="M4008 5973 c-47 -43 -77 -102 -78 -153 l-1 -35 -26 43 -25 43 -42
-24 c-155 -90 -186 -109 -186 -114 0 -3 71 -130 159 -282 87 -152 168 -292
179 -311 42 -74 124 -215 127 -218 2 -2 57 27 124 65 92 52 119 72 115 85 -3
9 -64 118 -136 243 -140 243 -155 283 -125 342 16 29 69 82 103 101 15 8 9 23
-52 131 -38 66 -75 121 -81 121 -7 0 -32 -17 -55 -37z"/>
<path d="M3455 5625 c-60 -36 -114 -66 -120 -68 -6 -2 1 -23 14 -47 22 -39 22
-43 5 -35 -10 4 -50 10 -89 12 -88 6 -161 -19 -248 -85 -188 -144 -233 -390
-111 -622 141 -270 456 -360 690 -199 78 53 142 137 146 192 3 36 14 34 34 -5
9 -18 18 -34 19 -36 2 -3 226 126 239 138 5 5 -1 25 -14 47 -12 21 -32 54 -43
73 -10 19 -89 156 -174 304 -85 148 -166 290 -181 315 -36 66 -46 81 -52 80
-3 0 -54 -29 -115 -64z m1 -389 c82 -38 135 -125 135 -220 0 -92 -41 -159
-124 -201 -58 -29 -137 -34 -191 -11 -86 36 -149 135 -148 233 1 163 177 270
328 199z"/>
<path d="M2385 5371 c-184 -105 -302 -174 -312 -184 -9 -9 7 -98 72 -392 47
-209 89 -397 94 -419 l9 -38 -31 28 c-17 16 -34 32 -37 35 -3 3 -86 79 -185
169 -99 91 -185 169 -191 175 -74 69 -188 171 -194 173 -14 5 -375 -209 -372
-221 12 -40 612 -1072 625 -1072 6 0 69 33 139 73 l128 73 -27 47 c-15 26 -38
64 -50 85 -13 21 -32 53 -42 70 -10 18 -84 145 -166 282 -81 138 -156 266
-168 285 -18 32 -15 30 38 -20 32 -30 68 -64 80 -75 12 -11 60 -56 106 -100
132 -125 411 -389 423 -400 42 -38 40 -38 135 16 50 28 93 55 96 59 2 4 -11
72 -29 151 -19 79 -66 281 -106 449 -39 168 -73 314 -76 325 -5 18 49 -71 115
-190 16 -27 37 -66 48 -85 11 -19 79 -142 152 -272 73 -131 136 -238 139 -238
3 0 65 35 138 77 l134 76 -19 31 c-22 36 -262 454 -465 808 -77 136 -143 247
-146 247 -3 0 -27 -12 -55 -28z"/>
<path d="M3967 4715 c-60 -35 -111 -66 -114 -69 -3 -3 4 -21 16 -41 26 -44 26
-48 4 -36 -63 33 -193 16 -283 -36 -225 -132 -295 -401 -168 -653 67 -133 214
-250 351 -278 194 -40 428 79 485 247 l17 51 19 -35 c11 -20 24 -34 30 -33 22
6 236 132 236 139 0 4 -93 169 -206 366 -114 197 -217 376 -229 398 -13 22
-29 41 -36 42 -8 1 -63 -27 -122 -62z m10 -382 c107 -49 165 -200 119 -308
-64 -151 -262 -188 -376 -72 -100 102 -94 264 12 350 67 54 166 66 245 30z"/>
<path d="M1055 4631 c-97 -44 -112 -167 -30 -240 44 -38 93 -48 142 -28 21 9
37 20 36 25 -6 26 -76 132 -87 132 -8 0 -19 -7 -27 -16 -10 -13 -10 -20 5 -45
17 -28 17 -29 -3 -29 -24 0 -51 36 -51 67 0 35 40 74 78 75 45 1 73 -27 71
-71 -2 -31 23 -101 36 -101 12 0 35 63 35 97 0 55 -30 104 -80 130 -52 28 -72
28 -125 4z"/>
<path d="M1156 4320 c-19 -17 -37 -43 -41 -59 -7 -34 9 -80 36 -99 10 -7 17
-17 15 -20 -2 -4 4 -18 13 -31 l18 -24 87 47 c47 26 86 53 86 60 0 7 -9 22
-20 34 -11 12 -20 31 -20 42 0 12 -13 35 -29 51 -41 41 -97 41 -145 -1z m102
-49 c35 -22 16 -81 -26 -81 -33 0 -52 16 -52 45 0 38 43 58 78 36z"/>
<path d="M1313 4102 c-45 -26 -84 -50 -88 -53 -6 -7 15 -59 24 -59 3 0 29 14
56 30 56 33 83 37 91 15 8 -21 -10 -41 -67 -72 -27 -14 -49 -29 -49 -32 0 -3
9 -16 18 -29 l18 -24 53 31 c57 34 73 37 89 18 15 -18 5 -30 -59 -69 -56 -33
-57 -34 -43 -61 8 -15 17 -27 19 -27 11 0 132 76 142 89 20 26 15 75 -10 99
-13 12 -28 22 -33 22 -6 0 -9 13 -6 28 3 20 -4 37 -22 59 -14 17 -26 35 -26
40 0 5 -6 16 -12 25 -12 15 -22 12 -95 -30z"/>
<path d="M2897 4116 c-127 -53 -196 -133 -223 -256 -6 -30 -15 -54 -20 -53 -5
2 -34 12 -64 23 -66 23 -111 25 -175 6 -103 -32 -194 -120 -218 -213 l-13 -51
-22 39 -23 40 -32 -19 c-18 -11 -69 -41 -114 -67 -46 -26 -83 -48 -83 -50 0
-3 460 -806 466 -814 5 -6 243 133 244 142 0 5 -55 103 -122 220 -140 241
-167 297 -168 348 0 71 74 139 154 139 57 0 105 -55 211 -240 210 -366 179
-329 240 -293 28 17 82 49 122 72 l72 41 -126 218 c-149 258 -173 306 -173
352 0 69 78 140 153 140 64 0 108 -54 258 -315 72 -126 135 -234 139 -239 5
-4 37 9 72 29 34 21 88 51 118 68 30 16 56 31 58 33 9 7 -325 570 -365 614
-66 73 -128 103 -228 107 -68 3 -89 0 -138 -21z"/>
<path d="M5423 3975 c-138 -31 -271 -134 -331 -257 -41 -84 -52 -132 -53 -225
0 -139 42 -248 135 -348 254 -273 696 -186 823 161 24 68 45 254 29 254 -4 0
-42 -19 -84 -42 -158 -86 -163 -89 -183 -142 -37 -100 -120 -152 -228 -144
-45 3 -68 11 -95 32 -20 15 -36 30 -36 34 0 4 134 85 298 179 333 192 317 175
259 266 -118 184 -334 278 -534 232z m187 -255 c63 -32 61 -36 -36 -91 -21
-11 -89 -50 -151 -86 -62 -35 -117 -62 -123 -58 -16 10 -11 76 9 120 52 114
195 169 301 115z"/>
<path d="M4498 3787 c-59 -34 -110 -65 -113 -69 -4 -4 35 -80 87 -170 l94
-163 -91 0 c-85 0 -96 -2 -167 -38 -97 -48 -167 -118 -216 -216 -36 -73 -37
-77 -37 -190 0 -95 4 -127 22 -175 65 -173 198 -305 352 -350 218 -64 499 76
530 264 l6 35 25 -43 25 -42 115 66 c63 37 116 68 118 69 7 6 -621 1085 -631
1084 -7 0 -60 -28 -119 -62z m165 -640 c114 -48 179 -200 133 -311 -36 -86
-128 -147 -223 -147 -158 0 -268 156 -222 312 36 118 197 194 312 146z"/>
<path d="M1493 3795 c-48 -20 -67 -58 -64 -123 2 -35 53 -82 90 -82 40 0 39 9
-4 54 -35 37 -43 60 -26 70 5 4 26 -23 46 -59 l36 -65 26 17 c33 22 54 73 47
113 -6 29 -53 79 -77 81 -7 0 -19 2 -28 4 -8 1 -29 -3 -46 -10z m79 -62 c18
-16 25 -53 10 -53 -8 0 -42 52 -42 64 0 11 13 6 32 -11z"/>
<path d="M1748 3526 c-34 -17 -49 -54 -42 -108 5 -39 4 -49 -10 -54 -25 -10
-43 11 -26 31 10 12 10 21 0 45 -14 34 -30 38 -52 13 -33 -39 -25 -106 19
-145 31 -28 80 -27 111 2 18 17 22 32 22 86 0 57 2 65 18 62 10 -2 16 -12 15
-23 -3 -23 16 -75 26 -75 25 0 46 31 46 69 0 69 -72 124 -127 97z"/>
<path d="M1897 3342 c-23 -14 -29 -15 -36 -3 -11 18 -53 -4 -49 -26 3 -13 -73
-69 -115 -85 -12 -5 10 -58 24 -58 6 0 38 16 71 36 43 24 63 32 68 24 11 -17
53 7 46 26 -3 8 6 20 25 29 24 13 27 19 20 33 -24 40 -25 41 -54 24z"/>
<path d="M1863 3186 c-29 -18 -62 -41 -73 -51 -28 -26 -27 -79 4 -110 13 -13
22 -25 21 -27 -2 -2 4 -14 14 -26 l17 -23 84 47 c47 26 86 49 88 50 2 1 -4 16
-12 33 l-16 30 -50 -29 c-70 -41 -100 -43 -100 -7 0 17 14 30 60 55 l60 33
-15 30 c-9 16 -19 29 -23 28 -4 0 -31 -15 -59 -33z"/>
<path d="M3810 3031 c-32 -13 -220 -124 -226 -132 -3 -5 5 -26 17 -46 21 -34
22 -36 3 -29 -10 5 -47 10 -80 13 -167 15 -355 -123 -415 -305 -29 -87 -29
-213 0 -298 11 -32 16 -63 12 -67 -5 -5 -28 -7 -52 -5 l-44 3 -166 288 c-91
159 -169 289 -173 289 -13 1 -245 -135 -242 -141 153 -267 240 -418 247 -425
19 -21 7 -28 -38 -22 -122 17 -218 57 -316 128 -135 100 -287 132 -632 132
-212 0 -252 -2 -343 -22 -251 -55 -397 -150 -366 -240 22 -62 152 -119 338
-148 248 -38 343 -80 365 -160 12 -45 -7 -96 -51 -145 -116 -125 -117 -242 -4
-355 94 -94 263 -171 512 -233 87 -22 335 -66 424 -76 30 -3 66 -8 80 -10 14
-2 57 -7 95 -10 39 -3 98 -8 132 -11 202 -19 721 -24 933 -9 463 32 841 114
1108 241 184 87 292 175 343 282 31 65 32 162 2 217 -102 186 -429 325 -941
399 l-153 22 50 27 c28 16 53 32 56 37 3 5 -441 798 -459 816 0 1 -8 -1 -16
-5z m-100 -446 c113 -58 163 -205 110 -319 -38 -80 -52 -86 -209 -86 -137 0
-137 0 -163 28 -41 43 -57 75 -67 128 -23 119 44 225 167 265 38 12 124 4 162
-16z m-2587 -419 c36 -27 73 -38 206 -61 52 -8 112 -24 135 -35 23 -11 32 -18
21 -14 -11 3 -81 14 -155 26 -165 25 -227 44 -253 80 -18 25 -19 30 -7 55 l14
28 4 -27 c2 -17 16 -38 35 -52z m637 -727 c16 -18 110 -75 182 -109 321 -156
919 -226 1695 -198 171 6 388 21 491 33 253 31 497 75 613 109 99 30 61 7 -48
-27 -230 -74 -586 -131 -963 -155 -267 -16 -814 -7 -1035 18 -140 16 -163 19
-275 41 -353 67 -591 171 -692 302 l-32 42 29 -25 c17 -14 32 -28 35 -31z"/>
<path d="M1974 2979 c-43 -12 -75 -50 -81 -98 -5 -35 -2 -44 24 -69 16 -16 27
-34 26 -39 -2 -6 4 -20 14 -31 l18 -21 117 67 c65 37 118 70 118 73 0 4 -8 17
-19 30 -18 22 -19 23 -46 5 -15 -10 -28 -16 -29 -14 -1 2 -6 16 -11 32 -17 51
-76 81 -131 65z m58 -71 c24 -20 28 -44 12 -67 -17 -23 -53 -28 -72 -9 -18 18
-15 65 6 77 23 14 35 13 54 -1z"/>
<path d="M2213 2807 c-28 -12 -28 -15 -3 -47 18 -23 20 -24 35 -9 15 14 15 20
3 42 -11 21 -16 23 -35 14z"/>
<path d="M2078 2733 c-43 -25 -78 -50 -78 -57 0 -7 6 -20 13 -30 13 -18 19
-16 100 30 48 26 87 52 87 57 0 17 -21 47 -33 46 -7 -1 -47 -21 -89 -46z"/>
<path d="M2135 2648 c-28 -16 -55 -48 -56 -67 -8 -84 34 -140 104 -143 40 -1
69 13 96 48 36 45 20 122 -31 158 -26 19 -84 20 -113 4z m93 -96 c2 -24 -2
-34 -20 -43 -26 -14 -26 -14 -51 8 -11 11 -15 24 -11 37 16 54 77 53 82 -2z"/>
<path d="M5460 1310 c-118 -14 -230 -76 -230 -126 0 -76 163 -131 359 -122
144 7 251 62 251 128 0 52 -93 104 -207 115 -103 11 -117 11 -173 5z m204
-202 c-50 -9 -166 -9 -224 1 -28 4 14 7 109 6 89 0 137 -3 115 -7z"/>
</g>
</svg>
